<svg width="40" height="40" viewBox="0 0 40 40" fill="none" xmlns="http://www.w3.org/2000/svg">
<path d="M32.5054 21.2485C32.5054 18.7762 31.7723 16.3595 30.3988 14.3038C29.0252 12.2482 27.073 10.6461 24.7889 9.69998C22.5049 8.75388 19.9915 8.50634 17.5668 8.98866C15.142 9.47097 12.9147 10.6615 11.1666 12.4096C9.41839 14.1578 8.22789 16.3851 7.74557 18.8098C7.26325 21.2346 7.5108 23.7479 8.45689 26.032C9.40299 28.3161 11.0051 30.2683 13.0608 31.6418C15.1164 33.0154 17.5331 33.7485 20.0054 33.7485C23.3206 33.7485 26.5 32.4315 28.8442 30.0873C31.1884 27.7431 32.5054 24.5637 32.5054 21.2485ZM11.103 7.12426C10.4471 6.56294 9.61324 6.2526 8.74992 6.24847L8.53195 6.25472C6.53585 6.37504 4.99992 8.12347 5.00539 10.2328C5.00539 11.2649 5.36945 11.7461 5.85539 12.3602C5.88557 12.3997 5.92369 12.4323 5.96729 12.4562C6.01089 12.48 6.059 12.4944 6.10851 12.4985H6.17726C6.21597 12.4978 6.254 12.4882 6.28841 12.4704C6.32282 12.4527 6.35269 12.4273 6.3757 12.3961L11.1234 7.73285C11.1639 7.69185 11.1956 7.64295 11.2164 7.58919C11.2372 7.53543 11.2468 7.47796 11.2444 7.42035C11.2425 7.36393 11.2289 7.30852 11.2046 7.25758C11.1803 7.20663 11.1457 7.16125 11.103 7.12426V7.12426ZM28.8968 7.12426C29.5527 6.56294 30.3866 6.2526 31.2499 6.24847L31.4679 6.25472C33.464 6.37504 34.9999 8.12347 34.9944 10.2328C34.9944 11.2649 34.6304 11.7461 34.1444 12.3602C34.1142 12.3995 34.076 12.4321 34.0324 12.4557C33.9888 12.4794 33.9408 12.4937 33.8913 12.4977H33.8226C33.7839 12.497 33.7458 12.4874 33.7114 12.4697C33.677 12.4519 33.6471 12.4265 33.6241 12.3953L28.8765 7.73285C28.8359 7.69185 28.8043 7.64295 28.7834 7.58919C28.7626 7.53543 28.7531 7.47796 28.7554 7.42035C28.7574 7.36393 28.7709 7.30852 28.7953 7.25758C28.8196 7.20663 28.8541 7.16125 28.8968 7.12426V7.12426Z" stroke="#666666" stroke-width="1.5" stroke-miterlimit="10"/>
<path d="M20.0054 12.4985V21.2485H13.7554M32.5054 33.7485L29.3804 30.6235M7.50537 33.7485L10.6304 30.6235" stroke="#666666" stroke-width="1.5" stroke-linecap="round" stroke-linejoin="round"/>
</svg>
