<svg width="24" height="24" viewBox="0 0 24 24" fill="none" xmlns="http://www.w3.org/2000/svg">
<path d="M19.5 3.74921H4.5C3.25736 3.74921 2.25 4.75657 2.25 5.99921V19.4992C2.25 20.7418 3.25736 21.7492 4.5 21.7492H19.5C20.7426 21.7492 21.75 20.7418 21.75 19.4992V5.99921C21.75 4.75657 20.7426 3.74921 19.5 3.74921Z" stroke="#92949C" stroke-width="1.5" stroke-linejoin="round"/>
<path d="M6 2.24829V3.74829M18 2.24829V3.74829M21.75 7.49829H2.25M14.25 12.1858L16.2853 10.6858H16.5V18.5608M7.21781 11.3856C7.42078 11.0425 7.98891 10.4983 8.99203 10.4983C10.178 10.4983 11.2369 11.1442 11.2369 12.3686C11.2396 12.6056 11.1948 12.8408 11.1052 13.0602C11.0156 13.2797 10.883 13.479 10.7152 13.6464C10.2028 14.1709 9.42094 14.3716 8.99391 14.3716C9.47672 14.3716 10.3622 14.5984 10.9416 15.1909C11.3128 15.5692 11.4844 16.1027 11.4844 16.6942C11.4844 18.0011 10.3814 18.7483 9.04125 18.7483C7.90828 18.7483 7.21313 17.9247 6.98438 17.537" stroke="#666666" stroke-width="1.5" stroke-linecap="round" stroke-linejoin="round"/>
</svg>
