<svg width="24" height="24" viewBox="0 0 24 24" fill="none" xmlns="http://www.w3.org/2000/svg">
<path d="M16.4999 11.9998L11.9999 22.4998L9.09363 15.7029" stroke="#92949C" stroke-width="1.5" stroke-linecap="round" stroke-linejoin="round"/>
<path d="M14.0352 10.4736C13.6752 11.2362 12.8989 11.8104 11.9999 11.8104C11.3858 11.8104 10.7343 11.5761 10.4235 11.3529C10.1375 11.1481 9.74988 11.2479 9.74988 11.7167V14.6229C9.74901 14.921 9.63021 15.2067 9.41942 15.4175C9.20863 15.6283 8.92298 15.7471 8.62488 15.7479V15.7479C8.32678 15.7471 8.04113 15.6283 7.83034 15.4175C7.61955 15.2067 7.50074 14.921 7.49988 14.6229V11.9979H7.40613C5.7491 11.9979 4.49988 10.655 4.49988 8.99793C4.49988 8.20228 4.81595 7.43921 5.37856 6.87661C5.94117 6.314 6.70423 5.99793 7.49988 5.99793H7.87488V5.62293C7.87488 4.52891 8.30948 3.4797 9.08306 2.70611C9.85665 1.93252 10.9059 1.49792 11.9999 1.49792C13.0939 1.49792 14.1431 1.93252 14.9167 2.70611C15.6903 3.4797 16.1249 4.52891 16.1249 5.62293V5.99793H16.4999C17.2955 5.99793 18.0586 6.314 18.6212 6.87661C19.1838 7.43921 19.4999 8.20228 19.4999 8.99793C19.4999 9.79358 19.1838 10.5566 18.6212 11.1192C18.0586 11.6819 17.2955 11.9979 16.4999 11.9979C15.4789 11.9979 14.5311 11.3886 14.0347 10.474L14.0352 10.4736Z" stroke="#666666" stroke-width="1.5" stroke-linecap="round" stroke-linejoin="round"/>
</svg>
